<?xml version="1.0" encoding="UTF-8"?>
<!-- Generator: Adobe Illustrator 15.0.0, SVG Export Plug-In  -->
<!DOCTYPE svg PUBLIC "-//W3C//DTD SVG 1.1//EN" "http://www.w3.org/Graphics/SVG/1.1/DTD/svg11.dtd">
<svg version="1.1" xmlns="http://www.w3.org/2000/svg" xmlns:xlink="http://www.w3.org/1999/xlink" xmlns:a="http://ns.adobe.com/AdobeSVGViewerExtensions/3.0/" x="0px" y="0px" width="80px" height="68px" viewBox="-3.323 -1.468 80 68" enable-background="new -3.323 -1.468 80 68" xml:space="preserve">
<defs>
</defs>
<path fill="#2E368F" d="M9.514,54.906l-0.003,0.038v4.273H1.556v-4.312l-0.749-0.469l-0.803,0.469L0,54.944V64.7  c0,0.34,0.356,0.619,0.77,0.619c0.434,0,0.786-0.279,0.786-0.619v-4.335h7.956V64.7c0,0.34,0.354,0.619,0.789,0.619  c0.414,0,0.767-0.279,0.767-0.619v-9.756v-0.038l-0.742-0.469L9.514,54.906z"/>
<path fill="#2E368F" d="M14.849,64.778c0,0.304,0.335,0.541,0.765,0.541c0.434,0,0.748-0.237,0.748-0.541v-6.213  c0-0.307-0.335-0.541-0.768-0.541c-0.41,0-0.745,0.248-0.745,0.541V64.778z"/>
<path fill="#2E368F" d="M19.886,58.565c0-0.291,0.338-0.538,0.752-0.538c0.43,0,0.765,0.233,0.765,0.538v0.732  c0.669-0.705,1.576-1.354,3.29-1.354c1.655,0,2.717,0.621,3.27,1.425c0.728-0.791,1.809-1.425,3.586-1.425  c2.341,0,3.778,1.105,3.778,2.875v3.959c0,0.304-0.333,0.541-0.751,0.541c-0.43,0-0.765-0.237-0.765-0.541v-3.707  c0-1.387-0.987-2.161-2.639-2.161c-1.537,0-2.799,0.805-2.799,2.217v3.651c0,0.304-0.332,0.541-0.766,0.541  c-0.413,0-0.748-0.237-0.748-0.541V61.04c0-1.342-1.003-2.13-2.618-2.13c-1.617,0-2.837,0.941-2.837,2.258v3.61  c0,0.304-0.314,0.541-0.749,0.541c-0.43,0-0.769-0.237-0.769-0.541V58.565z"/>
<path fill="#2E368F" d="M37.844,63.175v-0.031c0-1.507,1.775-2.313,4.356-2.313c1.295,0,2.224,0.126,3.129,0.309v-0.248  c0-1.288-1.12-1.952-3.033-1.952c-1.023,0-1.89,0.163-2.638,0.402c-0.101,0.027-0.196,0.041-0.275,0.041  c-0.356,0-0.67-0.211-0.67-0.459c0-0.22,0.218-0.383,0.414-0.443C40.134,58.18,41.154,58,42.454,58c1.439,0,2.541,0.261,3.29,0.786  c0.687,0.485,1.045,1.175,1.045,2.089v3.918c0,0.306-0.313,0.526-0.729,0.526c-0.433,0-0.731-0.221-0.731-0.499v-0.648  c-0.71,0.648-1.892,1.229-3.682,1.229C39.759,65.401,37.844,64.64,37.844,63.175 M45.351,62.62v-0.691  c-0.747-0.154-1.754-0.307-2.992-0.307c-1.914,0-2.976,0.585-2.976,1.484v0.026c0,0.9,1.181,1.425,2.559,1.425  C43.813,64.558,45.351,63.755,45.351,62.62"/>
<path fill="#2E368F" d="M54.564,58.896c1.889,0,3.683,1.106,3.683,2.755v0.028c0,1.646-1.794,2.768-3.683,2.768  c-1.911,0-3.583-1.082-3.583-2.768V61.65C50.981,59.92,52.596,58.896,54.564,58.896 M58.188,55.559v3.906  c-0.789-0.804-2.011-1.525-3.899-1.525c-2.44,0-4.865,1.383-4.865,3.727v0.026c0,2.352,2.425,3.709,4.865,3.709  c1.874,0,3.074-0.731,3.899-1.594v0.971c0,0.304,0.336,0.541,0.77,0.541c0.414,0,0.749-0.237,0.749-0.541v-9.22l-0.743-0.483  L58.188,55.559z"/>
<path fill="#2E368F" d="M63.092,58.565c0-0.291,0.334-0.538,0.747-0.538c0.431,0,0.766,0.233,0.766,0.538v1.34  C65.357,58.716,66.834,58,68.112,58c0.451,0,0.746,0.232,0.746,0.541c0,0.287-0.274,0.495-0.667,0.535  c-1.969,0.169-3.587,1.206-3.587,3.27v2.433c0,0.29-0.31,0.541-0.745,0.541c-0.434,0-0.768-0.237-0.768-0.541V58.565z"/>
<path fill="#2E368F" d="M71.205,64.778c0,0.304,0.335,0.541,0.767,0.541c0.433,0,0.746-0.237,0.746-0.541v-6.213  c0-0.307-0.334-0.541-0.767-0.541c-0.411,0-0.746,0.248-0.746,0.541V64.778z"/>
<path fill="#2E368F" d="M15.739,55.162c0,0-0.775,0.372-0.945,1.007c-0.125,0.489-0.118,1.191,0.768,1.28  C15.955,57.472,17.297,57.248,15.739,55.162"/>
<path fill="#2E368F" d="M72.098,55.316c0,0-0.313,0.148-0.584,0.417c-0.158,0.159-0.307,0.355-0.363,0.588  c-0.124,0.492-0.114,1.199,0.771,1.278C72.312,57.624,73.653,57.403,72.098,55.316"/>
<path fill="#E44232" d="M35.655,26.264c0,0-0.372,8.468-8.718,16.119c-6.455,5.831-16.996,13.176-24.089,8.828  C-0.072,49.121-5.637,38.903,35.655,26.264"/>
<path fill="#E44232" d="M35.652,26.201c0,0,0.993-7.758,8.652-15.964c5.423-5.814,16.87-13.048,23.913-8.745  C71.119,3.564,76.645,13.684,35.652,26.201"/>
<path fill="#F6D809" d="M35.655,26.264c0,0-0.372-8.47-8.713-16.121C20.482,4.312,9.946-3.033,2.853,1.315  C-0.072,3.405-5.637,13.626,35.655,26.264"/>
<path fill="#FFC95D" d="M35.444,26.197c-1.103-0.021-2.168-0.031-3.2-0.031c-0.792,0-1.562,0.006-2.313,0.021  C1.841,25.334,2.68,17.884,3.497,15.65c0.486-1.329,1.369-2.138,2.504-2.563C10.813,16.887,19.707,21.367,35.444,26.197   M35.571,26.264c0.008-0.009,0.018-0.015,0.024-0.018c0.021,0.006,0.039,0.009,0.06,0.018l0,0l0,0l0,0l0,0c-0.003,0-0.003,0-0.006,0  C35.62,26.264,35.6,26.264,35.571,26.264"/>
<path fill="#F8C018" d="M35.571,26.201c-0.04,0-0.086-0.003-0.127-0.003c-15.738-4.831-24.631-9.31-29.443-13.11  c0.707-0.266,1.506-0.378,2.375-0.378c3.762,0,8.724,2.174,12.105,3.867C27.658,20.347,34.723,25.566,35.571,26.201 M35.655,26.264  c-0.021-0.009-0.038-0.012-0.06-0.018c0.008-0.007,0.011-0.01,0.018-0.015C35.634,26.249,35.649,26.26,35.655,26.264"/>
<path fill="#F6D809" d="M35.652,26.204c0,0,0.388,8.45,9.096,16.086c6.741,5.816,17.74,13.145,25.147,8.806  C72.945,49.013,78.756,38.816,35.652,26.204"/>
<path fill="#FFC95D" d="M66.054,38.946c-5.168-3.722-14.424-8.067-30.402-12.742l0,0v-0.003c0.076,0,0.152,0,0.227,0  c1.255,0,2.462-0.01,3.624-0.031c28.799,0.079,29.254,7.939,28.309,10.623C67.461,37.8,66.854,38.497,66.054,38.946"/>
<polyline fill="#F8C018" points="35.652,26.204 35.649,26.204 35.649,26.201 35.652,26.201 35.652,26.204 "/>
<path fill="#F8C018" d="M63.048,39.607c-3.553,0-8.329-1.879-12.226-3.739c-7.681-3.664-14.961-9.493-15.17-9.664  c15.978,4.675,25.234,9.021,30.402,12.742C65.229,39.406,64.202,39.607,63.048,39.607"/>
<path fill="#E38748" d="M6.146,39.324c-1.245-0.378-2.183-1.175-2.659-2.531c-0.924-2.621-0.504-10.2,26.444-10.61  c1.718,0.056,3.539,0.084,5.477,0.084c0.055,0,0.106,0,0.164-0.003c-0.017,0.013-0.031,0.024-0.048,0.04  C19.893,31.097,11,35.54,6.146,39.324"/>
<path fill="#DF6728" d="M8.253,39.607c-0.767,0-1.477-0.088-2.107-0.283C11,35.54,19.893,31.097,35.523,26.303  c-1.006,0.794-7.847,6.128-15.047,9.565C16.579,37.729,11.804,39.607,8.253,39.607"/>
<path fill="#E38327" d="M35.613,26.231c-0.013-0.009-0.027-0.019-0.042-0.03c0.024,0,0.052,0,0.078,0l0,0l0,0  C35.644,26.204,35.634,26.215,35.613,26.231"/>
<path fill="#E37E2D" d="M35.407,26.264c-1.938,0-3.759-0.025-5.477-0.077c0.752-0.014,1.521-0.017,2.313-0.017  c1.032,0,2.097,0.006,3.2,0.027c0.051,0.018,0.099,0.03,0.151,0.048c-0.006,0.003-0.016,0.009-0.024,0.018  C35.514,26.264,35.462,26.264,35.407,26.264"/>
<path fill="#E37E27" d="M35.595,26.246c-0.052-0.018-0.1-0.031-0.151-0.048c0.041,0,0.087,0.003,0.127,0.003  c0.015,0.011,0.029,0.021,0.042,0.03C35.606,26.236,35.603,26.239,35.595,26.246"/>
<path fill="#E38748" d="M35.652,26.201c16.151-4.931,25.08-9.489,29.794-13.334c1.045,0.482,1.871,1.355,2.365,2.741  c0.817,2.287,1.691,9.989-28.309,10.562c-0.149,0-0.301,0-0.451,0C37.958,26.17,36.826,26.18,35.652,26.201 M35.652,26.201  L35.652,26.201L35.652,26.201L35.652,26.201L35.652,26.201"/>
<path fill="#DF6728" d="M35.652,26.201L35.652,26.201c0.197-0.149,7.62-5.713,15.17-9.665c3.408-1.705,8.342-4.159,12.104-4.159  c0.924,0,1.779,0.148,2.52,0.49C60.731,16.711,51.803,21.27,35.652,26.201L35.652,26.201"/>
<path fill="#E37E2D" d="M35.879,26.201c-0.075,0-0.151,0-0.227,0l0,0l0,0l0,0c1.174-0.021,2.306-0.031,3.4-0.031  c0.15,0,0.302,0,0.451,0C38.341,26.191,37.134,26.201,35.879,26.201"/>
<path fill="#AB4680" d="M35.644,26.276c0,0,29.865,7.228,29.865-0.062C65.509,22.663,58.186,21.198,35.644,26.276"/>
<path fill="#AB4680" d="M35.655,26.276c0,0-29.865,7.228-29.865-0.062C5.79,22.663,13.117,21.198,35.655,26.276"/>
</svg>