<svg width="190" height="190" viewBox="0 0 190 190" fill="none" xmlns="http://www.w3.org/2000/svg">
<g clip-path="url(#clip0_18_375)">
<g clip-path="url(#clip1_18_375)">
<path d="M3.8 3.8L34.2 34.2" stroke="#1E4B8C" stroke-width="6" stroke-linecap="round"/>
<path d="M3.8 34.2L34.2 3.8" stroke="#1E4B8C" stroke-width="6" stroke-linecap="round"/>
</g>
<g clip-path="url(#clip2_18_375)">
<path d="M41.8 3.8L72.2 34.2" stroke="#1E4B8C" stroke-width="6" stroke-linecap="round"/>
<path d="M41.8 34.2L72.2 3.8" stroke="#1E4B8C" stroke-width="6" stroke-linecap="round"/>
</g>
<g clip-path="url(#clip3_18_375)">
<path d="M79.8 3.8L110.2 34.2" stroke="#1E4B8C" stroke-width="6" stroke-linecap="round"/>
<path d="M79.8 34.2L110.2 3.8" stroke="#1E4B8C" stroke-width="6" stroke-linecap="round"/>
</g>
<g clip-path="url(#clip4_18_375)">
<path d="M117.8 3.8L148.2 34.2" stroke="#1E4B8C" stroke-width="6" stroke-linecap="round"/>
<path d="M117.8 34.2L148.2 3.8" stroke="#1E4B8C" stroke-width="6" stroke-linecap="round"/>
</g>
<g clip-path="url(#clip5_18_375)">
<path d="M155.8 3.8L186.2 34.2" stroke="#1E4B8C" stroke-width="6" stroke-linecap="round"/>
<path d="M155.8 34.2L186.2 3.8" stroke="#1E4B8C" stroke-width="6" stroke-linecap="round"/>
</g>
<g clip-path="url(#clip6_18_375)">
<path d="M3.8 41.8L34.2 72.2" stroke="#1E4B8C" stroke-width="6" stroke-linecap="round"/>
<path d="M3.8 72.2L34.2 41.8" stroke="#1E4B8C" stroke-width="6" stroke-linecap="round"/>
</g>
<g clip-path="url(#clip7_18_375)">
<path d="M41.8 41.8L72.2 72.2" stroke="#1E4B8C" stroke-width="6" stroke-linecap="round"/>
<path d="M41.8 72.2L72.2 41.8" stroke="#1E4B8C" stroke-width="6" stroke-linecap="round"/>
</g>
<g clip-path="url(#clip8_18_375)">
<path d="M79.8 41.8L110.2 72.2" stroke="#1E4B8C" stroke-width="6" stroke-linecap="round"/>
<path d="M79.8 72.2L110.2 41.8" stroke="#1E4B8C" stroke-width="6" stroke-linecap="round"/>
</g>
<g clip-path="url(#clip9_18_375)">
<path d="M117.8 41.8L148.2 72.2" stroke="#1E4B8C" stroke-width="6" stroke-linecap="round"/>
<path d="M117.8 72.2L148.2 41.8" stroke="#1E4B8C" stroke-width="6" stroke-linecap="round"/>
</g>
<g clip-path="url(#clip10_18_375)">
<path d="M155.8 41.8L186.2 72.2" stroke="#1E4B8C" stroke-width="6" stroke-linecap="round"/>
<path d="M155.8 72.2L186.2 41.8" stroke="#1E4B8C" stroke-width="6" stroke-linecap="round"/>
</g>
<g clip-path="url(#clip11_18_375)">
<path d="M3.8 79.8L34.2 110.2" stroke="#1E4B8C" stroke-width="6" stroke-linecap="round"/>
<path d="M3.8 110.2L34.2 79.8" stroke="#1E4B8C" stroke-width="6" stroke-linecap="round"/>
</g>
<g clip-path="url(#clip12_18_375)">
<path d="M41.8 79.8L72.2 110.2" stroke="#1E4B8C" stroke-width="6" stroke-linecap="round"/>
<path d="M41.8 110.2L72.2 79.8" stroke="#1E4B8C" stroke-width="6" stroke-linecap="round"/>
</g>
<g clip-path="url(#clip13_18_375)">
<path d="M79.8 79.8L110.2 110.2" stroke="#1E4B8C" stroke-width="6" stroke-linecap="round"/>
<path d="M79.8 110.2L110.2 79.8" stroke="#1E4B8C" stroke-width="6" stroke-linecap="round"/>
</g>
<g clip-path="url(#clip14_18_375)">
<path d="M117.8 79.8L148.2 110.2" stroke="#1E4B8C" stroke-width="6" stroke-linecap="round"/>
<path d="M117.8 110.2L148.2 79.8" stroke="#1E4B8C" stroke-width="6" stroke-linecap="round"/>
</g>
<g clip-path="url(#clip15_18_375)">
<path d="M155.8 79.8L186.2 110.2" stroke="#1E4B8C" stroke-width="6" stroke-linecap="round"/>
<path d="M155.8 110.2L186.2 79.8" stroke="#1E4B8C" stroke-width="6" stroke-linecap="round"/>
</g>
<g clip-path="url(#clip16_18_375)">
<path d="M3.8 117.8L34.2 148.2" stroke="#1E4B8C" stroke-width="6" stroke-linecap="round"/>
<path d="M3.8 148.2L34.2 117.8" stroke="#1E4B8C" stroke-width="6" stroke-linecap="round"/>
</g>
<g clip-path="url(#clip17_18_375)">
<path d="M41.8 117.8L72.2 148.2" stroke="#1E4B8C" stroke-width="6" stroke-linecap="round"/>
<path d="M41.8 148.2L72.2 117.8" stroke="#1E4B8C" stroke-width="6" stroke-linecap="round"/>
</g>
<g clip-path="url(#clip18_18_375)">
<path d="M79.8 117.8L110.2 148.2" stroke="#1E4B8C" stroke-width="6" stroke-linecap="round"/>
<path d="M79.8 148.2L110.2 117.8" stroke="#1E4B8C" stroke-width="6" stroke-linecap="round"/>
</g>
<g clip-path="url(#clip19_18_375)">
<path d="M117.8 117.8L148.2 148.2" stroke="#1E4B8C" stroke-width="6" stroke-linecap="round"/>
<path d="M117.8 148.2L148.2 117.8" stroke="#1E4B8C" stroke-width="6" stroke-linecap="round"/>
</g>
<g clip-path="url(#clip20_18_375)">
<path d="M155.8 117.8L186.2 148.2" stroke="#1E4B8C" stroke-width="6" stroke-linecap="round"/>
<path d="M155.8 148.2L186.2 117.8" stroke="#1E4B8C" stroke-width="6" stroke-linecap="round"/>
</g>
<g clip-path="url(#clip21_18_375)">
<path d="M3.8 155.8L34.2 186.2" stroke="#1E4B8C" stroke-width="6" stroke-linecap="round"/>
<path d="M3.8 186.2L34.2 155.8" stroke="#1E4B8C" stroke-width="6" stroke-linecap="round"/>
</g>
<g clip-path="url(#clip22_18_375)">
<path d="M41.8 155.8L72.2 186.2" stroke="#1E4B8C" stroke-width="6" stroke-linecap="round"/>
<path d="M41.8 186.2L72.2 155.8" stroke="#1E4B8C" stroke-width="6" stroke-linecap="round"/>
</g>
<g clip-path="url(#clip23_18_375)">
<path d="M79.8 155.8L110.2 186.2" stroke="#1E4B8C" stroke-width="6" stroke-linecap="round"/>
<path d="M79.8 186.2L110.2 155.8" stroke="#1E4B8C" stroke-width="6" stroke-linecap="round"/>
</g>
<g clip-path="url(#clip24_18_375)">
<path d="M117.8 155.8L148.2 186.2" stroke="#1E4B8C" stroke-width="6" stroke-linecap="round"/>
<path d="M117.8 186.2L148.2 155.8" stroke="#1E4B8C" stroke-width="6" stroke-linecap="round"/>
</g>
<g clip-path="url(#clip25_18_375)">
<path d="M155.8 155.8L186.2 186.2" stroke="#1E4B8C" stroke-width="6" stroke-linecap="round"/>
<path d="M155.8 186.2L186.2 155.8" stroke="#1E4B8C" stroke-width="6" stroke-linecap="round"/>
</g>
</g>
<defs>
<clipPath id="clip0_18_375">
<rect width="190" height="190" fill="white"/>
</clipPath>
<clipPath id="clip1_18_375">
<rect width="38" height="38" fill="white"/>
</clipPath>
<clipPath id="clip2_18_375">
<rect width="38" height="38" fill="white" transform="translate(38)"/>
</clipPath>
<clipPath id="clip3_18_375">
<rect width="38" height="38" fill="white" transform="translate(76)"/>
</clipPath>
<clipPath id="clip4_18_375">
<rect width="38" height="38" fill="white" transform="translate(114)"/>
</clipPath>
<clipPath id="clip5_18_375">
<rect width="38" height="38" fill="white" transform="translate(152)"/>
</clipPath>
<clipPath id="clip6_18_375">
<rect width="38" height="38" fill="white" transform="translate(0 38)"/>
</clipPath>
<clipPath id="clip7_18_375">
<rect width="38" height="38" fill="white" transform="translate(38 38)"/>
</clipPath>
<clipPath id="clip8_18_375">
<rect width="38" height="38" fill="white" transform="translate(76 38)"/>
</clipPath>
<clipPath id="clip9_18_375">
<rect width="38" height="38" fill="white" transform="translate(114 38)"/>
</clipPath>
<clipPath id="clip10_18_375">
<rect width="38" height="38" fill="white" transform="translate(152 38)"/>
</clipPath>
<clipPath id="clip11_18_375">
<rect width="38" height="38" fill="white" transform="translate(0 76)"/>
</clipPath>
<clipPath id="clip12_18_375">
<rect width="38" height="38" fill="white" transform="translate(38 76)"/>
</clipPath>
<clipPath id="clip13_18_375">
<rect width="38" height="38" fill="white" transform="translate(76 76)"/>
</clipPath>
<clipPath id="clip14_18_375">
<rect width="38" height="38" fill="white" transform="translate(114 76)"/>
</clipPath>
<clipPath id="clip15_18_375">
<rect width="38" height="38" fill="white" transform="translate(152 76)"/>
</clipPath>
<clipPath id="clip16_18_375">
<rect width="38" height="38" fill="white" transform="translate(0 114)"/>
</clipPath>
<clipPath id="clip17_18_375">
<rect width="38" height="38" fill="white" transform="translate(38 114)"/>
</clipPath>
<clipPath id="clip18_18_375">
<rect width="38" height="38" fill="white" transform="translate(76 114)"/>
</clipPath>
<clipPath id="clip19_18_375">
<rect width="38" height="38" fill="white" transform="translate(114 114)"/>
</clipPath>
<clipPath id="clip20_18_375">
<rect width="38" height="38" fill="white" transform="translate(152 114)"/>
</clipPath>
<clipPath id="clip21_18_375">
<rect width="38" height="38" fill="white" transform="translate(0 152)"/>
</clipPath>
<clipPath id="clip22_18_375">
<rect width="38" height="38" fill="white" transform="translate(38 152)"/>
</clipPath>
<clipPath id="clip23_18_375">
<rect width="38" height="38" fill="white" transform="translate(76 152)"/>
</clipPath>
<clipPath id="clip24_18_375">
<rect width="38" height="38" fill="white" transform="translate(114 152)"/>
</clipPath>
<clipPath id="clip25_18_375">
<rect width="38" height="38" fill="white" transform="translate(152 152)"/>
</clipPath>
</defs>
</svg>
